<?xml version="1.0" encoding="utf-8"?>
<!-- Generator: Adobe Illustrator 16.0.0, SVG Export Plug-In . SVG Version: 6.00 Build 0)  -->
<!DOCTYPE svg PUBLIC "-//W3C//DTD SVG 1.1//EN" "http://www.w3.org/Graphics/SVG/1.1/DTD/svg11.dtd">
<svg version="1.1" id="Layer_1" xmlns="http://www.w3.org/2000/svg" xmlns:xlink="http://www.w3.org/1999/xlink" x="0px" y="0px"
	 width="128px" height="128px" viewBox="0 0 128 128" enable-background="new 0 0 128 128" xml:space="preserve">
<g>
	<g>
		<g>
			<rect x="59.805" fill="#282D33" width="4" height="7.729"/>
		</g>
		<g>
			
				<rect x="39.162" y="6.389" transform="matrix(0.3442 0.9389 -0.9389 0.3442 36.0951 -34.897)" fill="#282D33" width="7.732" height="4"/>
		</g>
		<g>
			
				<rect x="23.068" y="17.019" transform="matrix(0.6453 0.7639 -0.7639 0.6453 24.085 -13.8349)" fill="#282D33" width="7.747" height="4"/>
		</g>
		<g>
			
				<rect x="11.6" y="32.472" transform="matrix(0.8674 0.4976 -0.4976 0.8674 19.2068 -3.1338)" fill="#282D33" width="7.767" height="4"/>
		</g>
		<g>
			
				<rect x="6.151" y="50.882" transform="matrix(0.985 0.1727 -0.1727 0.985 9.2845 -0.9398)" fill="#282D33" width="7.783" height="3.999"/>
		</g>
		<g>
			
				<rect x="99.872" y="96.977" transform="matrix(0.6451 0.7641 -0.7641 0.6451 112.4423 -44.1465)" fill="#282D33" width="7.75" height="4"/>
		</g>
		<g>
			
				<rect x="111.318" y="81.525" transform="matrix(0.8674 0.4976 -0.4976 0.8674 56.8328 -46.248)" fill="#282D33" width="7.768" height="3.999"/>
		</g>
		<g>
			
				<rect x="116.751" y="63.114" transform="matrix(0.9849 0.1731 -0.1731 0.9849 13.096 -19.9048)" fill="#282D33" width="7.784" height="4"/>
		</g>
		<g>
			
				<rect x="117.415" y="42.073" transform="matrix(0.1719 0.9851 -0.9851 0.1719 144.1726 -79.5722)" fill="#282D33" width="4" height="7.786"/>
		</g>
		<g>
			
				<rect x="109.663" y="24.507" transform="matrix(0.4971 0.8677 -0.8677 0.4971 80.7914 -82.6123)" fill="#282D33" width="4" height="7.768"/>
		</g>
		<g>
			
				<rect x="96.326" y="10.632" transform="matrix(0.7636 0.6457 -0.6457 0.7636 32.6107 -60.0591)" fill="#282D33" width="4" height="7.748"/>
		</g>
		<g>
			
				<rect x="79.011" y="2.121" transform="matrix(0.9387 0.3448 -0.3448 0.9387 7.0329 -27.5652)" fill="#282D33" width="3.999" height="7.736"/>
		</g>
	</g>
	<g>
		<g>
			<path fill="#282D33" d="M96.91,128h-4V89.917l0.59-0.587c7.813-7.772,12.113-18.098,12.113-29.073
				c0-22.7-18.605-41.167-41.475-41.167c-22.873,0-41.481,18.467-41.481,41.167c0,0.617,0.024,1.23,0.048,1.843l0.023,0.581
				l-0.291,0.532L10.132,84.381h8.624v19.041c0,5.318,4.361,9.645,9.721,9.645h20.566V128h-4v-10.934H28.477
				c-7.565,0-13.721-6.121-13.721-13.645V88.381H3.178l15.51-26.676c-0.018-0.489-0.031-0.967-0.031-1.448
				c0-24.905,20.403-45.167,45.481-45.167c25.075,0,45.475,20.262,45.475,45.167c0,11.769-4.504,22.854-12.703,31.312V128z"/>
		</g>
	</g>
	<g>
		<g>
			<path fill="#282D33" d="M63.621,95.607c-19.374,0-35.136-15.656-35.136-34.899h4c0,17.038,13.967,30.899,31.136,30.899
				c17.166,0,31.131-13.861,31.131-30.899c0-17.037-13.965-30.897-31.131-30.897v-4c19.371,0,35.131,15.655,35.131,34.897
				C98.752,79.951,82.992,95.607,63.621,95.607z"/>
		</g>
		<g>
			<g>
				<path fill="#282D33" d="M32.485,60.708h-4c0-0.7,0.022-1.395,0.063-2.085l3.993,0.233
					C32.505,59.469,32.485,60.086,32.485,60.708z"/>
			</g>
			<g>
				<path fill="#282D33" d="M32.94,55.419l-3.941-0.685c0.226-1.302,0.53-2.604,0.904-3.869l3.836,1.133
					C33.409,53.117,33.14,54.268,32.94,55.419z M34.927,48.694l-3.681-1.566c0.516-1.212,1.109-2.409,1.762-3.559l3.478,1.978
					C35.907,46.563,35.383,47.622,34.927,48.694z M38.394,42.596l-3.23-2.359c0.778-1.065,1.625-2.097,2.518-3.066l2.942,2.709
					C39.833,40.738,39.083,41.652,38.394,42.596z M43.145,37.43l-2.62-3.022c0.995-0.862,2.05-1.678,3.137-2.424l2.265,3.297
					C44.962,35.942,44.027,36.666,43.145,37.43z M48.929,33.458l-1.879-3.531c1.165-0.62,2.375-1.179,3.599-1.662l1.469,3.721
					C51.034,32.414,49.961,32.91,48.929,33.458z M55.455,30.883l-1.039-3.862c1.272-0.342,2.579-0.616,3.882-0.813l0.598,3.955
					C57.74,30.337,56.582,30.58,55.455,30.883z"/>
			</g>
			<g>
				<path fill="#282D33" d="M61.769,29.864l-0.233-3.993c0.69-0.041,1.386-0.061,2.085-0.061v4
					C63,29.81,62.382,29.828,61.769,29.864z"/>
			</g>
		</g>
		<g>
			<g>
				<path fill="#282D33" d="M63.621,84.861c-13.406,0-24.312-10.834-24.312-24.151c0-13.318,10.906-24.154,24.312-24.154
					c13.404,0,24.309,10.835,24.309,24.154h-4c0-11.113-9.109-20.154-20.309-20.154c-11.2,0-20.312,9.041-20.312,20.154
					c0,11.111,9.112,20.151,20.312,20.151V84.861z"/>
			</g>
			<g>
				<g>
					<path fill="#282D33" d="M87.836,62.855l-3.984-0.354c0.053-0.59,0.078-1.193,0.078-1.791h4
						C87.93,61.426,87.898,62.147,87.836,62.855z"/>
				</g>
				<g>
					<path fill="#282D33" d="M70.143,83.982l-1.064-3.855c1.311-0.361,2.59-0.858,3.803-1.478l1.816,3.564
						C73.244,82.954,71.711,83.55,70.143,83.982z M78.807,79.57l-2.49-3.131c1.064-0.847,2.049-1.806,2.924-2.851l3.064,2.57
						C81.258,77.409,80.08,78.557,78.807,79.57z M85.053,72.114l-3.52-1.902c0.648-1.198,1.174-2.465,1.563-3.765l3.832,1.145
						C86.461,69.154,85.83,70.675,85.053,72.114z"/>
				</g>
				<g>
					<path fill="#282D33" d="M63.621,84.861v-4c0.6,0,1.204-0.025,1.797-0.077l0.342,3.986
						C65.055,84.831,64.334,84.861,63.621,84.861z"/>
				</g>
			</g>
		</g>
		<g>
			<path fill="#282D33" d="M63.619,74.09c-7.424,0-13.465-6.003-13.465-13.382s6.041-13.382,13.465-13.382
				c7.426,0,13.465,6.003,13.465,13.382S71.045,74.09,63.619,74.09z M63.619,51.326c-5.219,0-9.465,4.208-9.465,9.382
				c0,5.173,4.246,9.382,9.465,9.382s9.465-4.209,9.465-9.382C73.084,55.535,68.838,51.326,63.619,51.326z"/>
		</g>
	</g>
</g>
</svg>
